<?xml version="1.0" standalone="no"?>
<!DOCTYPE svg PUBLIC "-//W3C//DTD SVG 20010904//EN"
 "http://www.w3.org/TR/2001/REC-SVG-20010904/DTD/svg10.dtd">
<svg version="1.0" xmlns="http://www.w3.org/2000/svg"
 width="135.000000pt" height="118.000000pt" viewBox="0 0 135.000000 118.000000"
 preserveAspectRatio="xMidYMid meet">

<g transform="translate(0.000000,118.000000) scale(0.100000,-0.100000)"
fill="#000000" stroke="none">
<path d="M636 1105 c-99 -35 -199 -133 -250 -245 -44 -96 -60 -176 -60 -295 1
-187 52 -323 164 -436 97 -97 136 -113 293 -117 71 -2 150 0 175 4 38 7 15 10
-113 14 -147 6 -165 8 -216 33 -70 34 -157 123 -197 203 -119 235 -82 550 84
724 80 84 146 115 244 114 47 0 89 -7 113 -17 21 -9 35 -12 32 -8 -22 36 -195
53 -269 26z"/>
<path d="M673 1046 c-61 -20 -107 -51 -157 -107 -88 -98 -130 -224 -129 -384
2 -170 57 -302 169 -404 83 -76 108 -81 378 -80 352 1 388 13 65 22 -319 8
-341 13 -424 89 -234 213 -189 690 78 830 63 33 174 32 244 -3 29 -14 49 -21
43 -14 -41 49 -187 77 -267 51z"/>
</g>
</svg>
